HIERARCHY
ROOT Hips
{
	OFFSET 0.00000 0.00000 0.00000
	CHANNELS 6 Xposition Yposition Zposition Zrotation Yrotation Xrotation 
	JOINT LHipJoint
	{
		OFFSET 0 0 0
		CHANNELS 3 Zrotation Yrotation Xrotation
		JOINT LeftHip
		{
			OFFSET 1.62329 -1.80800 0.67318
			CHANNELS 3 Zrotation Yrotation Xrotation
			JOINT LeftKnee
			{
				OFFSET 2.57139 -7.06484 0.00000
				CHANNELS 3 Zrotation Yrotation Xrotation
				JOINT LeftAnkle
				{
					OFFSET 2.52017 -6.92413 0.00000
					CHANNELS 3 Zrotation Yrotation Xrotation
					JOINT LeftToe
					{
						OFFSET 0.23295 -0.64001 2.10214
						CHANNELS 3 Zrotation Yrotation Xrotation
						End Site
						{
							OFFSET 0.00000 -0.00000 1.10139
						}
					}
				}
			}
		}
	}
	JOINT RHipJoint
	{
		OFFSET 0 0 0
		CHANNELS 3 Zrotation Yrotation Xrotation
		JOINT RightHip
		{
			OFFSET -1.48061 -1.80800 0.67318
			CHANNELS 3 Zrotation Yrotation Xrotation
			JOINT RightKnee
			{
				OFFSET -2.63258 -7.23296 0.00000
				CHANNELS 3 Zrotation Yrotation Xrotation
				JOINT RightAnkle
				{
					OFFSET -2.54779 -7.00000 0.00000
					CHANNELS 3 Zrotation Yrotation Xrotation
					JOINT RightToe
					{
						OFFSET -0.23067 -0.63376 2.12161
						CHANNELS 3 Zrotation Yrotation Xrotation
						End Site
						{
							OFFSET -0.00000 -0.00000 1.11000
						}
					}
				}
			}
		}
	}
	JOINT lowerback
	{
		OFFSET 0 0 0
		CHANNELS 3 Zrotation Yrotation Xrotation
		JOINT Chest
		{
			OFFSET -0.02108 2.07573 -0.16981
			CHANNELS 3 Zrotation Yrotation Xrotation
			JOINT Chest2
			{
				OFFSET 0.05070 2.08439 -0.03141
				CHANNELS 3 Zrotation Yrotation Xrotation
				JOINT lowerneck
				{
					OFFSET 0 0 0
					CHANNELS 3 Zrotation Yrotation Xrotation
					JOINT Neck
					{
						OFFSET -0.10731 1.60408 0.31370
						CHANNELS 3 Zrotation Yrotation Xrotation
						JOINT Head
						{
							OFFSET 0.08411 1.65679 -0.30822
							CHANNELS 3 Zrotation Yrotation Xrotation
							End Site
							{
								OFFSET 0.03911 1.69149 -0.14146
							}
						}
					}
				}
				JOINT LeftCollar
				{
					OFFSET 0 0 0
					CHANNELS 3 Zrotation Yrotation Xrotation
					JOINT LeftShoulder
					{
						OFFSET 3.52315 0.73219 -0.54694
CHANNELS 3 Zrotation Xrotation Yrotation
						JOINT LeftElbow
						{
OFFSET 0 -5.324620 -0.000000
CHANNELS 3 Zrotation Xrotation Yrotation
							JOINT LeftWrist
							{
OFFSET 0 -3.484020 -0.000000
CHANNELS 3 Zrotation Xrotation Yrotation
								JOINT lhand
								{
									OFFSET 0 0 0
CHANNELS 3 Zrotation Xrotation Yrotation
									JOINT LFingers
									{
OFFSET 0 -0.572480 -0.000000
CHANNELS 3 Zrotation Xrotation Yrotation
										End Site
										{
OFFSET 0 -0.461540 -0.000000
										}
									}
								}
								JOINT LThumb
								{
OFFSET 0 0.000000 0.000000
CHANNELS 3 Zrotation Xrotation Yrotation
									End Site
									{
OFFSET 0 -0.468590 0.468590
									}
								}
							}
						}
					}
				}
				JOINT RightCollar
				{
					OFFSET 0 0 0
					CHANNELS 3 Zrotation Yrotation Xrotation
					JOINT RightShoulder
					{
						OFFSET -3.41766 0.93592 -0.10019
CHANNELS 3 Zrotation Xrotation Yrotation
						JOINT RightElbow
						{
OFFSET 0 -5.335890 -0.000000
CHANNELS 3 Zrotation Xrotation Yrotation
							JOINT RightWrist
							{
OFFSET 0 -3.641340 -0.000000
CHANNELS 3 Zrotation Xrotation Yrotation
								JOINT rhand
								{
									OFFSET 0 0 0
CHANNELS 3 Zrotation Xrotation Yrotation
									JOINT RFingers
									{
OFFSET 0 -0.734810 -0.000000
CHANNELS 3 Zrotation Xrotation Yrotation
										End Site
										{
OFFSET 0 -0.592420 -0.000000
										}
									}
								}
								JOINT RThumb
								{
OFFSET 0 0.000000 0.000000
CHANNELS 3 Zrotation Xrotation Yrotation
									End Site
									{
OFFSET 0 -0.601470 0.601470
									}
								}
							}
						}
					}
				}
			}
		}
	}
}
MOTION
Frames: 7
Frame Time: 0.008333333333333333
-9.547616 17.638541 3.039223 -30.436135 91.790049 -22.491493 0.000000 0.000000 0.000000 -22.570571 -0.717519 -12.587651 1.976846 8.817719 25.226860 1.155550 -2.527668 -19.636983 0.353598 -3.820229 -10.571440 0.000000 0.000000 0.000000 23.129086 -7.877700 -35.132961 -4.409349 -12.685798 38.203821 -1.915272 -14.348007 -34.585178 -1.329640 -7.302071 20.613308 -3.547820 0.310316 5.332928 3.368447 0.327636 0.163192 5.474244 0.246861 -2.865624 -5.836065 0.920109 -15.881748 -3.679510 6.448938 36.644511 0.738928 1.890719 15.640090 0.000000 0.000000 0.000000 3.323853 -1.858573 -25.678761 23.210009 -34.317663 7.256339 14.439053 13.344369 -22.523316 0.000000 0.000000 0.000000 -7.125000 0.000000 0.000000 -14.913832 52.546057 2.819883 0.000000 0.000000 0.000000 -8.994769 1.606414 11.121205 -18.136539 -28.331586 -4.613845 -23.259923 20.626047 -5.022023 0.000000 0.000000 0.000000 7.125000 0.000000 0.000000 2.551180 24.516359 1.263721
-9.650546 17.621500 2.982095 -25.713615 93.534031 -17.821899 0.000000 0.000000 0.000000 -23.341298 -1.393765 -12.945584 2.008536 8.883802 25.432550 1.105178 -2.916426 -19.112610 0.445699 -4.283290 -11.875074 0.000000 0.000000 0.000000 22.308963 -9.151173 -36.351554 -4.662166 -12.992917 39.341998 -1.853174 -14.451453 -34.321379 -1.251830 -7.093294 19.992154 -4.373697 0.380300 4.905685 2.995155 0.367305 0.558745 5.548370 0.245412 -2.223147 -6.833895 0.687973 -15.492367 -2.909976 6.148797 36.673356 1.180564 1.757023 15.497298 0.000000 0.000000 0.000000 3.752774 -2.299507 -24.742734 23.411512 -34.535760 7.370267 15.739388 12.735904 -22.614425 0.000000 0.000000 0.000000 -7.125000 0.000000 0.000000 -13.675991 52.864326 2.686512 0.000000 0.000000 0.000000 -8.672088 0.589352 13.353653 -18.428745 -28.702602 -4.753437 -24.177921 19.865842 -4.118344 0.000000 0.000000 0.000000 7.125000 0.000000 0.000000 1.855750 25.466630 0.877894
-9.740584 17.630212 2.926987 -18.973878 94.691107 -11.271741 0.000000 0.000000 0.000000 -23.527137 -2.803820 -12.863938 2.070529 9.011459 25.831123 1.092552 -2.717844 -19.036577 0.270282 -3.344026 -9.238149 0.000000 0.000000 0.000000 21.812621 -9.097129 -36.513547 -4.748391 -13.094697 39.724047 -1.650939 -15.539011 -34.091676 -1.338419 -7.323650 20.678645 -3.924614 0.890420 4.839905 2.135578 1.047094 0.770614 4.345249 0.565341 -2.030273 -6.470768 0.196700 -15.306419 -2.477695 5.268322 37.298381 1.161361 1.503216 15.763111 0.000000 0.000000 0.000000 5.067629 -2.625850 -23.922266 23.258832 -34.370543 7.283880 16.383866 12.732584 -23.072149 0.000000 0.000000 0.000000 -7.125000 0.000000 0.000000 -13.239463 53.435072 2.781377 0.000000 0.000000 0.000000 -7.280113 0.336937 14.673793 -19.283979 -29.769773 -5.171236 -23.996014 18.700148 -4.867129 0.000000 0.000000 0.000000 7.125000 0.000000 0.000000 1.999254 24.654817 0.983651
-9.793631 17.639770 2.882621 -14.931503 95.571569 -7.368297 0.000000 0.000000 0.000000 -23.614549 -3.908545 -12.546389 2.070227 9.010854 25.829308 1.068965 -1.972040 -18.982906 0.275481 -3.375531 -9.326085 0.000000 0.000000 0.000000 21.233718 -8.312172 -36.392764 -4.832731 -13.192876 40.094926 -1.408425 -16.487114 -33.548200 -1.739721 -8.298060 23.625222 -3.668040 1.292494 4.572760 1.648741 1.592720 0.905712 3.662139 0.825452 -1.777628 -6.506239 -0.045009 -15.089558 -2.555872 5.026080 37.469750 1.096748 1.405940 15.809482 0.000000 0.000000 0.000000 5.746843 -2.693975 -22.201525 22.773546 -33.840234 7.011793 15.050980 11.784754 -23.022634 0.000000 0.000000 0.000000 -7.125000 0.000000 0.000000 -14.542905 53.143389 2.964737 0.000000 0.000000 0.000000 -7.063074 0.401020 18.015417 -20.463380 -31.196141 -5.769721 -23.487549 17.794722 -6.037929 0.000000 0.000000 0.000000 7.125000 0.000000 0.000000 2.391698 23.403621 1.249058
-9.835146 17.643666 2.846550 -14.714781 95.845599 -7.404857 0.000000 0.000000 0.000000 -23.870648 -3.874181 -12.448001 2.085325 9.041563 25.925462 1.086492 -1.458830 -19.271007 0.270438 -3.344643 -9.239723 0.000000 0.000000 0.000000 20.452186 -7.074565 -36.088138 -4.949856 -13.327051 40.605561 -1.121206 -16.694104 -32.019264 -1.852959 -8.551814 24.403731 -3.907777 1.717422 4.605111 1.315356 2.139084 0.969701 3.415909 1.096891 -1.775486 -6.646277 -0.166791 -14.896141 -2.501938 4.934883 37.641561 1.132272 1.371452 15.849624 0.000000 0.000000 0.000000 5.752340 -2.163807 -19.183752 22.573184 -33.618770 6.900485 15.115810 10.464698 -25.003886 0.000000 0.000000 0.000000 -7.125000 0.000000 0.000000 -15.447959 55.093765 3.897115 0.000000 0.000000 0.000000 -7.279927 0.669715 22.399757 -22.082961 -33.069978 -6.631363 -23.946248 17.231199 -5.889846 0.000000 0.000000 0.000000 7.125000 0.000000 0.000000 2.050552 23.540462 1.061566
-9.853797 17.627631 2.812447 -12.416345 96.023788 -5.355167 0.000000 0.000000 0.000000 -23.845621 -3.747396 -12.551589 2.155919 9.183467 26.371001 1.096223 -1.279373 -19.407337 0.259561 -3.277903 -9.053422 0.000000 0.000000 0.000000 19.996148 -5.838595 -35.856560 -5.061727 -13.452916 41.088525 -0.896378 -14.850654 -28.697680 -1.367172 -7.399712 20.905368 -3.967340 2.046038 4.635898 1.125793 2.569130 0.998217 3.223471 1.311100 -1.795387 -6.366573 -0.187571 -14.879266 -2.824343 4.970497 37.617947 0.953648 1.391615 15.854579 0.000000 0.000000 0.000000 5.410699 -1.113238 -15.997415 22.792105 -33.860638 7.022150 16.946218 7.319250 -28.306265 0.000000 0.000000 0.000000 -7.125000 0.000000 0.000000 -15.452704 58.688313 5.253217 0.000000 0.000000 0.000000 -7.157246 0.645496 24.767117 -23.539645 -34.672875 -7.443349 -23.919584 19.438194 -6.010472 0.000000 0.000000 0.000000 7.125000 0.000000 0.000000 2.072266 23.410543 1.079601
-9.847827 17.601603 2.774886 -17.402663 96.829653 -11.024809 0.000000 0.000000 0.000000 -24.877099 -3.601102 -11.808496 2.174669 9.220774 26.488342 1.111028 -1.577455 -19.461616 0.235720 -3.124487 -8.625572 0.000000 0.000000 0.000000 18.590797 -5.228949 -35.569738 -5.250621 -13.660572 41.894374 -0.958820 -12.281532 -26.674159 -1.142690 -6.788214 19.089315 -4.888264 2.108127 5.001087 0.893729 2.592469 1.224859 3.491170 1.324077 -1.796654 -6.469695 -0.156811 -15.026452 -2.916916 5.077868 37.430469 0.950992 1.411608 15.797677 0.000000 0.000000 0.000000 4.816566 0.189026 -13.059048 23.142940 -34.244690 7.218589 16.917938 0.626831 -31.197239 0.000000 0.000000 0.000000 -7.125000 0.000000 0.000000 -17.512799 61.461915 7.139975 0.000000 0.000000 0.000000 -7.486213 0.678275 27.190964 -25.187364 -36.394534 -8.400938 -23.979447 20.684783 -6.448382 0.000000 0.000000 0.000000 7.125000 0.000000 0.000000 2.036603 22.929321 1.082830
